<svg xmlns="http://www.w3.org/2000/svg" xmlns:xlink="http://www.w3.org/1999/xlink" width="1920" zoomAndPan="magnify" viewBox="0 0 1440 809.999993" height="1080" preserveAspectRatio="xMidYMid meet" version="1.2"><defs><clipPath id="6371c664e9"><path d="M 371.621094 81 L 1019.621094 81 L 1019.621094 729 L 371.621094 729 Z M 371.621094 81 "/></clipPath></defs><g id="db1b628ab2"><path style=" stroke:none;fill-rule:nonzero;fill:#c2b48a;fill-opacity:1;" d="M 844.425781 203.585938 C 802.273438 209.316406 797.625 213.96875 791.902344 256.109375 C 786.160156 213.96875 781.519531 209.316406 739.367188 203.585938 C 781.519531 197.851562 786.160156 193.203125 791.902344 151.0625 C 797.625 193.203125 802.273438 197.851562 844.425781 203.585938 "/><path style=" stroke:none;fill-rule:nonzero;fill:#c2b48a;fill-opacity:1;" d="M 641.648438 580.074219 C 572.554688 589.472656 564.941406 597.09375 555.546875 666.167969 C 546.152344 597.09375 538.53125 589.472656 469.453125 580.074219 C 538.53125 570.679688 546.152344 563.066406 555.546875 493.980469 C 564.941406 563.066406 572.554688 570.679688 641.648438 580.074219 "/><g clip-rule="nonzero" clip-path="url(#6371c664e9)"><path style=" stroke:none;fill-rule:nonzero;fill:#c2b48a;fill-opacity:1;" d="M 1019.542969 404.964844 C 729.59375 423.75 714.359375 438.972656 695.585938 728.933594 C 676.804688 438.972656 661.582031 423.75 371.621094 404.964844 C 661.582031 386.183594 676.804688 370.960938 695.585938 81.007812 C 714.359375 370.960938 729.59375 386.183594 1019.542969 404.964844 "/></g></g></svg>