<svg xmlns="http://www.w3.org/2000/svg" xmlns:xlink="http://www.w3.org/1999/xlink" width="1920" zoomAndPan="magnify" viewBox="0 0 1440 809.999993" height="1080" preserveAspectRatio="xMidYMid meet" version="1.2"><g id="bfa96f6b44"><path style=" stroke:none;fill-rule:nonzero;fill:#c2b48a;fill-opacity:1;" d="M 720 159.328125 C 855.464844 159.328125 965.671875 269.535156 965.671875 405 C 965.671875 540.464844 855.464844 650.671875 720 650.671875 C 584.535156 650.671875 474.328125 540.464844 474.328125 405 C 474.328125 269.535156 584.535156 159.328125 720 159.328125 Z M 720 657.789062 C 859.390625 657.789062 972.789062 544.390625 972.789062 405 C 972.789062 265.609375 859.390625 152.210938 720 152.210938 C 580.609375 152.210938 467.210938 265.609375 467.210938 405 C 467.210938 544.390625 580.609375 657.789062 720 657.789062 "/><path style=" stroke:none;fill-rule:nonzero;fill:#c2b48a;fill-opacity:1;" d="M 720 88.121094 C 894.730469 88.121094 1036.878906 230.269531 1036.878906 405 C 1036.878906 579.730469 894.730469 721.878906 720 721.878906 C 545.269531 721.878906 403.121094 579.730469 403.121094 405 C 403.121094 230.269531 545.269531 88.121094 720 88.121094 Z M 490.898438 634.101562 C 520.652344 663.855469 555.300781 687.21875 593.882812 703.539062 C 633.832031 720.433594 676.261719 729 720 729 C 763.738281 729 806.167969 720.433594 846.117188 703.539062 C 884.699219 687.21875 919.347656 663.855469 949.101562 634.101562 C 978.855469 604.347656 1002.21875 569.699219 1018.539062 531.117188 C 1035.433594 491.167969 1044 448.738281 1044 405 C 1044 361.261719 1035.433594 318.832031 1018.539062 278.882812 C 1002.21875 240.300781 978.855469 205.652344 949.101562 175.898438 C 919.347656 146.144531 884.699219 122.78125 846.117188 106.460938 C 806.167969 89.566406 763.738281 81 720 81 C 676.261719 81 633.832031 89.566406 593.882812 106.460938 C 555.300781 122.78125 520.652344 146.144531 490.898438 175.898438 C 461.144531 205.652344 437.78125 240.300781 421.460938 278.882812 C 404.566406 318.832031 396 361.261719 396 405 C 396 448.738281 404.566406 491.167969 421.460938 531.117188 C 437.78125 569.699219 461.144531 604.347656 490.898438 634.101562 "/></g></svg>