<svg xmlns="http://www.w3.org/2000/svg" xmlns:xlink="http://www.w3.org/1999/xlink" width="1920" zoomAndPan="magnify" viewBox="0 0 1440 809.999993" height="1080" preserveAspectRatio="xMidYMid meet" version="1.2"><defs><clipPath id="4165ec8b36"><path d="M 444 93.589844 L 996 93.589844 L 996 716.089844 L 444 716.089844 Z M 444 93.589844 "/></clipPath></defs><g id="bb395d2ca4"><g clip-rule="nonzero" clip-path="url(#4165ec8b36)"><path style=" stroke:none;fill-rule:nonzero;fill:#c2b48a;fill-opacity:1;" d="M 547.070312 309.480469 C 543.042969 311.816406 537.90625 310.433594 535.582031 306.402344 C 533.253906 302.378906 534.636719 297.234375 538.660156 294.914062 C 548.15625 289.421875 559.226562 287.960938 569.839844 290.804688 C 580.441406 293.648438 589.304688 300.449219 594.792969 309.953125 C 606.125 329.578125 599.375 354.761719 579.753906 366.089844 C 578.429688 366.855469 576.984375 367.21875 575.554688 367.21875 C 572.648438 367.21875 569.820312 365.710938 568.261719 363.011719 C 565.9375 358.988281 567.316406 353.84375 571.339844 351.523438 C 582.929688 344.828125 586.914062 329.953125 580.222656 318.367188 C 573.53125 306.773438 558.660156 302.785156 547.070312 309.480469 Z M 673.789062 624.152344 C 675.011719 627.5625 673.910156 631.371094 671.058594 633.605469 L 568.113281 714.300781 C 566.59375 715.492188 564.761719 716.089844 562.925781 716.089844 C 561.183594 716.089844 559.441406 715.554688 557.960938 714.46875 L 447.574219 633.777344 C 444.507812 631.539062 443.324219 627.515625 444.683594 623.972656 L 529.820312 402.101562 C 501.660156 390.5 481.777344 362.792969 481.777344 330.5 C 481.777344 290.652344 512.042969 257.757812 550.792969 253.546875 L 550.792969 206.460938 C 550.792969 201.8125 554.558594 198.046875 559.203125 198.046875 C 583.367188 198.046875 603.023438 178.390625 603.023438 154.230469 C 603.023438 130.070312 583.367188 110.414062 559.203125 110.414062 C 535.042969 110.414062 515.390625 130.070312 515.390625 154.230469 C 515.390625 154.351562 515.359375 154.421875 515.355469 154.535156 C 515.347656 154.691406 515.3125 154.839844 515.300781 154.996094 C 515.25 155.394531 515.167969 155.738281 515.042969 156.011719 C 514.679688 157.675781 513.953125 159.277344 512.589844 160.5 L 485.707031 184.5625 C 484.105469 186 482.101562 186.707031 480.101562 186.707031 C 477.792969 186.707031 475.492188 185.761719 473.828125 183.90625 C 470.730469 180.445312 471.023438 175.128906 474.488281 172.027344 L 498.761719 150.292969 C 500.808594 118.691406 527.09375 93.589844 559.203125 93.589844 C 592.640625 93.589844 619.84375 120.792969 619.84375 154.230469 C 619.84375 184.808594 597.074219 210.101562 567.613281 214.21875 L 567.613281 253.546875 C 606.367188 257.753906 636.632812 290.648438 636.632812 330.5 C 636.632812 360.867188 619.019531 387.132812 593.511719 399.8125 Z M 533.824219 595.035156 L 561.078125 678.730469 L 584.636719 595.128906 L 561.066406 409.496094 Z M 543.480469 413.449219 L 467.53125 611.390625 L 517.578125 589.890625 Z M 469.40625 628.894531 L 545.199219 684.304688 L 520.070312 607.128906 Z M 576.382812 686.441406 L 649.519531 629.113281 L 598.691406 607.277344 Z M 577.714844 405.597656 C 577.65625 405.613281 577.59375 405.632812 577.535156 405.648438 L 600.933594 589.933594 L 651.441406 611.632812 Z M 559.203125 391.105469 C 592.621094 391.105469 619.808594 363.917969 619.808594 330.5 C 619.808594 297.082031 592.621094 269.894531 559.203125 269.894531 C 525.785156 269.894531 498.597656 297.082031 498.597656 330.5 C 498.597656 363.917969 525.785156 391.105469 559.203125 391.105469 Z M 886.914062 307.058594 C 893.175781 308.734375 898.40625 312.75 901.648438 318.363281 C 908.339844 329.953125 904.351562 344.828125 892.765625 351.519531 C 888.738281 353.84375 887.367188 358.988281 889.6875 363.007812 C 891.242188 365.710938 894.074219 367.214844 896.976562 367.214844 C 898.40625 367.214844 899.851562 366.855469 901.175781 366.085938 C 920.800781 354.757812 927.546875 329.574219 916.214844 309.953125 C 910.734375 300.445312 901.871094 293.648438 891.269531 290.804688 C 880.636719 287.960938 869.582031 289.425781 860.082031 294.910156 C 856.058594 297.234375 854.683594 302.378906 857.003906 306.402344 C 859.328125 310.429688 864.480469 311.804688 868.496094 309.480469 C 874.105469 306.242188 880.632812 305.375 886.914062 307.058594 Z M 992.488281 633.605469 L 889.542969 714.300781 C 888.023438 715.492188 886.1875 716.089844 884.351562 716.089844 C 882.613281 716.089844 880.871094 715.554688 879.390625 714.46875 L 769.003906 633.777344 C 765.9375 631.539062 764.753906 627.515625 766.113281 623.972656 L 851.246094 402.097656 C 823.085938 390.496094 803.199219 362.789062 803.199219 330.5 C 803.199219 290.648438 833.464844 257.757812 872.214844 253.546875 L 872.214844 206.460938 C 872.214844 202.359375 875.152344 198.957031 879.027344 198.207031 C 879.5 198.105469 880.027344 198.046875 880.628906 198.046875 C 904.792969 198.046875 924.449219 178.390625 924.449219 154.230469 C 924.449219 130.070312 904.792969 110.414062 880.628906 110.414062 C 856.472656 110.414062 836.816406 130.070312 836.816406 154.230469 C 836.816406 154.363281 836.78125 154.394531 836.777344 154.507812 C 836.769531 154.726562 836.710938 154.933594 836.6875 155.15625 C 836.660156 155.257812 836.644531 155.402344 836.605469 155.476562 C 836.324219 157.339844 835.53125 159.140625 834.015625 160.5 L 807.136719 184.5625 C 805.527344 186 803.523438 186.707031 801.527344 186.707031 C 799.21875 186.707031 796.917969 185.761719 795.257812 183.90625 C 792.15625 180.445312 792.449219 175.128906 795.910156 172.027344 L 820.1875 150.289062 C 822.238281 118.691406 848.523438 93.589844 880.628906 93.589844 C 914.070312 93.589844 941.273438 120.792969 941.273438 154.230469 C 941.273438 184.808594 918.503906 210.101562 889.042969 214.21875 L 889.042969 253.546875 C 927.792969 257.753906 958.0625 290.648438 958.0625 330.496094 C 958.0625 360.863281 940.449219 387.125 914.9375 399.804688 L 995.21875 624.152344 C 996.4375 627.5625 995.339844 631.371094 992.488281 633.605469 Z M 855.25 595.035156 L 882.507812 678.730469 L 906.0625 595.128906 L 882.492188 409.496094 Z M 864.90625 413.453125 L 788.957031 611.390625 L 838.996094 589.890625 Z M 790.832031 628.890625 L 866.628906 684.304688 L 841.496094 607.125 Z M 897.808594 686.445312 L 970.949219 629.117188 L 920.117188 607.277344 Z M 899.140625 405.59375 C 899.082031 405.609375 899.023438 405.625 898.964844 405.640625 L 922.363281 589.933594 L 972.871094 611.632812 Z M 880.628906 391.101562 C 914.046875 391.101562 941.238281 363.917969 941.238281 330.496094 C 941.238281 297.078125 914.046875 269.890625 880.628906 269.890625 C 847.210938 269.890625 820.023438 297.078125 820.023438 330.496094 C 820.023438 363.917969 847.210938 391.101562 880.628906 391.101562 Z M 880.628906 391.101562 "/></g></g></svg>