<svg xmlns="http://www.w3.org/2000/svg" xmlns:xlink="http://www.w3.org/1999/xlink" width="1920" zoomAndPan="magnify" viewBox="0 0 1440 809.999993" height="1080" preserveAspectRatio="xMidYMid meet" version="1.2"><defs><clipPath id="ede98f6aea"><path d="M 133.296875 200.019531 L 1306.695312 200.019531 L 1306.695312 609.960938 L 133.296875 609.960938 Z M 133.296875 200.019531 "/></clipPath></defs><g id="1495c1499c"><g clip-rule="nonzero" clip-path="url(#ede98f6aea)"><path style=" stroke:none;fill-rule:nonzero;fill:#c2b48a;fill-opacity:1;" d="M 1170.21875 464.042969 C 1067.160156 407.28125 972.523438 376.667969 888.933594 373.058594 C 883.847656 372.839844 878.570312 372.726562 873.238281 372.726562 C 726.898438 372.726562 516.570312 455.414062 363 515.792969 C 286.175781 545.996094 213.613281 574.523438 191.128906 574.523438 C 190.929688 574.523438 190.753906 574.519531 190.597656 574.515625 C 163.691406 553.496094 167.523438 450.28125 172.035156 414.777344 C 174.351562 411.632812 168.183594 411.644531 232.65625 383.183594 C 281.726562 361.523438 347.1875 337.789062 416.980469 316.359375 C 581.953125 265.699219 743.574219 235.457031 849.320312 235.457031 C 899.832031 235.457031 937.953125 241.933594 962.617188 254.703125 C 1063.746094 307.074219 1158.871094 415.808594 1216.75 491.1875 C 1202.621094 482.480469 1187.023438 473.300781 1170.21875 464.042969 Z M 1303.945312 552.574219 C 1297.75 542.792969 1150.242188 311.953125 978.910156 223.234375 C 949.160156 207.832031 905.5625 200.019531 849.320312 200.019531 C 738.246094 200.019531 569.917969 231.71875 399.046875 284.808594 C 326.949219 307.210938 260.050781 331.851562 210.664062 354.195312 C 135.53125 388.191406 141.359375 392.429688 137.804688 404.988281 C 137.613281 405.652344 137.46875 406.320312 137.359375 406.996094 C 131.035156 446.261719 125.914062 573.671875 172.28125 604.984375 C 177.234375 608.335938 183.402344 609.960938 191.128906 609.960938 C 218.972656 609.960938 276.566406 587.851562 375.964844 548.773438 C 526.902344 489.433594 733.613281 408.164062 873.238281 408.164062 C 878.058594 408.164062 882.824219 408.265625 887.40625 408.464844 C 1074.203125 416.53125 1275.96875 574.359375 1277.984375 575.949219 C 1284.757812 581.304688 1294.40625 581 1300.835938 575.222656 C 1307.253906 569.441406 1308.566406 559.871094 1303.945312 552.574219 "/></g></g></svg>