<svg xmlns="http://www.w3.org/2000/svg" xmlns:xlink="http://www.w3.org/1999/xlink" width="1920" zoomAndPan="magnify" viewBox="0 0 1440 809.999993" height="1080" preserveAspectRatio="xMidYMid meet" version="1.2"><defs><clipPath id="185e4de4bf"><path d="M 419.488281 297 L 1020.238281 297 L 1020.238281 729 L 419.488281 729 Z M 419.488281 297 "/></clipPath></defs><g id="31fb168c3a"><path style=" stroke:none;fill-rule:nonzero;fill:#c2b48a;fill-opacity:1;" d="M 825.855469 151.660156 L 611.207031 151.660156 C 607.941406 151.660156 605.320312 149.035156 605.320312 145.769531 C 605.320312 142.503906 607.941406 139.882812 611.207031 139.882812 L 825.855469 139.882812 C 829.121094 139.882812 831.742188 142.503906 831.742188 145.769531 C 831.742188 149.035156 829.121094 151.660156 825.855469 151.660156 "/><path style=" stroke:none;fill-rule:nonzero;fill:#c2b48a;fill-opacity:1;" d="M 884.738281 281.199219 C 883.125 281.199219 881.515625 280.558594 880.367188 279.269531 C 840.851562 235.890625 819.964844 179.765625 819.964844 116.972656 L 819.964844 110.441406 C 819.964844 100.6875 812.054688 92.777344 802.300781 92.777344 L 634.761719 92.777344 C 625.007812 92.777344 617.097656 100.6875 617.097656 110.441406 L 617.097656 116.972656 C 617.097656 179.765625 596.210938 235.890625 556.695312 279.269531 C 554.488281 281.660156 550.761719 281.84375 548.371094 279.683594 C 545.929688 277.476562 545.792969 273.75 547.957031 271.355469 C 585.492188 230.140625 605.320312 176.777344 605.320312 116.972656 L 605.320312 110.441406 C 605.320312 94.203125 618.523438 81 634.761719 81 L 802.300781 81 C 818.539062 81 831.742188 94.203125 831.742188 110.441406 L 831.742188 116.972656 C 831.742188 176.777344 851.570312 230.140625 889.105469 271.355469 C 891.269531 273.75 891.085938 277.476562 888.691406 279.683594 C 887.589844 280.695312 886.164062 281.199219 884.738281 281.199219 "/><g clip-rule="nonzero" clip-path="url(#185e4de4bf)"><path style=" stroke:none;fill-rule:nonzero;fill:#c2b48a;fill-opacity:1;" d="M 720.003906 728.710938 L 718.4375 728.710938 C 600.351562 727.238281 419.5625 549.898438 419.5625 334.195312 C 419.5625 331.480469 421.402344 329.136719 424.027344 328.492188 L 430.144531 326.972656 C 452.777344 321.40625 480.929688 314.460938 509.222656 298.542969 C 512.121094 296.980469 515.660156 297.992188 517.273438 300.796875 C 518.835938 303.648438 517.824219 307.238281 515.019531 308.847656 C 485.300781 325.5 456.273438 332.632812 432.949219 338.382812 L 431.339844 338.796875 C 433.871094 545.988281 605.964844 715.507812 718.53125 716.933594 L 720.003906 716.933594 C 833.03125 716.792969 1005.8125 547.78125 1008.34375 338.796875 L 1003.835938 337.691406 C 981.433594 332.261719 950.65625 324.855469 922 308.847656 C 919.191406 307.238281 918.179688 303.648438 919.742188 300.796875 C 921.355469 297.992188 924.941406 296.980469 927.792969 298.542969 C 954.980469 313.769531 983.640625 320.71875 1006.640625 326.28125 L 1015.703125 328.492188 C 1018.328125 329.136719 1020.167969 331.480469 1020.167969 334.195312 C 1020.167969 551.785156 838.550781 728.570312 720.003906 728.710938 "/></g><path style=" stroke:none;fill-rule:nonzero;fill:#c2b48a;fill-opacity:1;" d="M 717.195312 516.730469 C 700.957031 516.730469 687.753906 529.933594 687.753906 546.171875 C 687.753906 562.410156 700.957031 575.613281 717.195312 575.613281 C 717.382812 575.613281 718.667969 575.613281 718.761719 575.613281 C 718.761719 575.613281 718.761719 575.613281 718.808594 575.613281 C 736.105469 575.613281 749.304688 562.410156 749.304688 546.171875 C 749.304688 529.933594 736.105469 516.730469 719.863281 516.730469 C 719.679688 516.730469 718.484375 516.777344 718.300781 516.730469 Z M 719.863281 587.390625 L 718.300781 587.34375 L 717.195312 587.390625 C 694.472656 587.390625 675.980469 568.898438 675.980469 546.171875 C 675.980469 523.449219 694.472656 504.957031 717.195312 504.957031 L 718.53125 505 L 719.863281 504.957031 C 742.589844 504.957031 761.082031 523.449219 761.082031 546.171875 C 761.082031 568.898438 742.589844 587.390625 719.863281 587.390625 "/><path style=" stroke:none;fill-rule:nonzero;fill:#c2b48a;fill-opacity:1;" d="M 790.523438 504.957031 C 774.285156 504.957031 761.082031 518.15625 761.082031 534.398438 C 761.082031 550.636719 774.285156 563.839844 790.523438 563.839844 C 806.761719 563.839844 819.964844 550.636719 819.964844 534.398438 C 819.964844 518.15625 806.761719 504.957031 790.523438 504.957031 Z M 790.523438 575.613281 C 767.800781 575.613281 749.304688 557.121094 749.304688 534.398438 C 749.304688 511.671875 767.800781 493.179688 790.523438 493.179688 C 813.25 493.179688 831.742188 511.671875 831.742188 534.398438 C 831.742188 557.121094 813.25 575.613281 790.523438 575.613281 "/><path style=" stroke:none;fill-rule:nonzero;fill:#c2b48a;fill-opacity:1;" d="M 646.539062 504.957031 C 630.300781 504.957031 617.097656 518.15625 617.097656 534.398438 C 617.097656 550.636719 630.300781 563.839844 646.539062 563.839844 C 662.777344 563.839844 675.980469 550.636719 675.980469 534.398438 C 675.980469 518.15625 662.777344 504.957031 646.539062 504.957031 Z M 646.539062 575.613281 C 623.8125 575.613281 605.320312 557.121094 605.320312 534.398438 C 605.320312 511.671875 623.8125 493.179688 646.539062 493.179688 C 669.261719 493.179688 687.753906 511.671875 687.753906 534.398438 C 687.753906 557.121094 669.261719 575.613281 646.539062 575.613281 "/><path style=" stroke:none;fill-rule:nonzero;fill:#c2b48a;fill-opacity:1;" d="M 843.519531 469.625 C 830.546875 469.625 819.964844 480.207031 819.964844 493.179688 C 819.964844 506.152344 830.546875 516.730469 843.519531 516.730469 C 856.492188 516.730469 867.070312 506.152344 867.070312 493.179688 C 867.070312 480.207031 856.492188 469.625 843.519531 469.625 Z M 843.519531 528.507812 C 824.015625 528.507812 808.1875 512.683594 808.1875 493.179688 C 808.1875 473.671875 824.015625 457.847656 843.519531 457.847656 C 863.023438 457.847656 878.847656 473.671875 878.847656 493.179688 C 878.847656 512.683594 863.023438 528.507812 843.519531 528.507812 "/><path style=" stroke:none;fill-rule:nonzero;fill:#c2b48a;fill-opacity:1;" d="M 593.542969 469.625 C 580.570312 469.625 569.988281 480.207031 569.988281 493.179688 C 569.988281 506.152344 580.570312 516.730469 593.542969 516.730469 C 606.515625 516.730469 617.097656 506.152344 617.097656 493.179688 C 617.097656 480.207031 606.515625 469.625 593.542969 469.625 Z M 593.542969 528.507812 C 574.039062 528.507812 558.214844 512.683594 558.214844 493.179688 C 558.214844 473.671875 574.039062 457.847656 593.542969 457.847656 C 613.003906 457.847656 628.871094 473.671875 628.871094 493.179688 C 628.871094 512.683594 613.003906 528.507812 593.542969 528.507812 "/><path style=" stroke:none;fill-rule:nonzero;fill:#c2b48a;fill-opacity:1;" d="M 878.847656 422.519531 C 865.875 422.519531 855.296875 433.101562 855.296875 446.074219 C 855.296875 459.046875 865.875 469.625 878.847656 469.625 C 891.820312 469.625 902.402344 459.046875 902.402344 446.074219 C 902.402344 433.101562 891.820312 422.519531 878.847656 422.519531 Z M 878.847656 481.402344 C 859.34375 481.402344 843.519531 465.578125 843.519531 446.074219 C 843.519531 426.566406 859.34375 410.742188 878.847656 410.742188 C 898.351562 410.742188 914.179688 426.566406 914.179688 446.074219 C 914.179688 465.578125 898.351562 481.402344 878.847656 481.402344 "/><path style=" stroke:none;fill-rule:nonzero;fill:#c2b48a;fill-opacity:1;" d="M 558.214844 422.519531 C 545.242188 422.519531 534.660156 433.101562 534.660156 446.074219 C 534.660156 459.046875 545.242188 469.625 558.214844 469.625 C 571.1875 469.625 581.765625 459.046875 581.765625 446.074219 C 581.765625 433.101562 571.1875 422.519531 558.214844 422.519531 Z M 558.214844 481.402344 C 538.707031 481.402344 522.882812 465.578125 522.882812 446.074219 C 522.882812 426.566406 538.707031 410.742188 558.214844 410.742188 C 577.671875 410.742188 593.542969 426.566406 593.542969 446.074219 C 593.542969 465.578125 577.671875 481.402344 558.214844 481.402344 "/><path style=" stroke:none;fill-rule:nonzero;fill:#c2b48a;fill-opacity:1;" d="M 902.402344 363.636719 C 889.429688 363.636719 878.847656 374.21875 878.847656 387.191406 C 878.847656 400.164062 889.429688 410.742188 902.402344 410.742188 C 915.375 410.742188 925.953125 400.164062 925.953125 387.191406 C 925.953125 374.21875 915.375 363.636719 902.402344 363.636719 Z M 902.402344 422.519531 C 882.894531 422.519531 867.070312 406.695312 867.070312 387.191406 C 867.070312 367.683594 882.894531 351.859375 902.402344 351.859375 C 921.90625 351.859375 937.730469 367.683594 937.730469 387.191406 C 937.730469 406.695312 921.90625 422.519531 902.402344 422.519531 "/><path style=" stroke:none;fill-rule:nonzero;fill:#c2b48a;fill-opacity:1;" d="M 534.660156 363.636719 C 521.6875 363.636719 511.109375 374.21875 511.109375 387.191406 C 511.109375 400.164062 521.6875 410.742188 534.660156 410.742188 C 547.632812 410.742188 558.214844 400.164062 558.214844 387.191406 C 558.214844 374.21875 547.632812 363.636719 534.660156 363.636719 Z M 534.660156 422.519531 C 515.15625 422.519531 499.332031 406.695312 499.332031 387.191406 C 499.332031 367.683594 515.15625 351.859375 534.660156 351.859375 C 554.121094 351.859375 569.988281 367.683594 569.988281 387.191406 C 569.988281 406.695312 554.121094 422.519531 534.660156 422.519531 "/><path style=" stroke:none;fill-rule:nonzero;fill:#c2b48a;fill-opacity:1;" d="M 908.289062 316.53125 C 898.535156 316.53125 890.625 324.441406 890.625 334.195312 C 890.625 343.949219 898.535156 351.859375 908.289062 351.859375 C 918.042969 351.859375 925.953125 343.949219 925.953125 334.195312 C 925.953125 324.441406 918.042969 316.53125 908.289062 316.53125 Z M 908.289062 363.636719 C 892.050781 363.636719 878.847656 350.433594 878.847656 334.195312 C 878.847656 317.957031 892.050781 304.753906 908.289062 304.753906 C 924.527344 304.753906 937.730469 317.957031 937.730469 334.195312 C 937.730469 350.433594 924.527344 363.636719 908.289062 363.636719 "/><path style=" stroke:none;fill-rule:nonzero;fill:#c2b48a;fill-opacity:1;" d="M 528.773438 316.53125 C 519.019531 316.53125 511.109375 324.441406 511.109375 334.195312 C 511.109375 343.949219 519.019531 351.859375 528.773438 351.859375 C 538.523438 351.859375 546.4375 343.949219 546.4375 334.195312 C 546.4375 324.441406 538.523438 316.53125 528.773438 316.53125 Z M 528.773438 363.636719 C 512.535156 363.636719 499.332031 350.433594 499.332031 334.195312 C 499.332031 317.957031 512.535156 304.753906 528.773438 304.753906 C 545.011719 304.753906 558.214844 317.957031 558.214844 334.195312 C 558.214844 350.433594 545.011719 363.636719 528.773438 363.636719 "/><path style=" stroke:none;fill-rule:nonzero;fill:#c2b48a;fill-opacity:1;" d="M 908.289062 269.425781 C 898.535156 269.425781 890.625 277.335938 890.625 287.089844 C 890.625 296.839844 898.535156 304.753906 908.289062 304.753906 C 918.042969 304.753906 925.953125 296.839844 925.953125 287.089844 C 925.953125 277.335938 918.042969 269.425781 908.289062 269.425781 Z M 908.289062 316.53125 C 892.050781 316.53125 878.847656 303.328125 878.847656 287.089844 C 878.847656 270.851562 892.050781 257.648438 908.289062 257.648438 C 924.527344 257.648438 937.730469 270.851562 937.730469 287.089844 C 937.730469 303.328125 924.527344 316.53125 908.289062 316.53125 "/><path style=" stroke:none;fill-rule:nonzero;fill:#c2b48a;fill-opacity:1;" d="M 528.773438 269.425781 C 519.019531 269.425781 511.109375 277.335938 511.109375 287.089844 C 511.109375 296.839844 519.019531 304.753906 528.773438 304.753906 C 538.523438 304.753906 546.4375 296.839844 546.4375 287.089844 C 546.4375 277.335938 538.523438 269.425781 528.773438 269.425781 Z M 528.773438 316.53125 C 512.535156 316.53125 499.332031 303.328125 499.332031 287.089844 C 499.332031 270.851562 512.535156 257.648438 528.773438 257.648438 C 545.011719 257.648438 558.214844 270.851562 558.214844 287.089844 C 558.214844 303.328125 545.011719 316.53125 528.773438 316.53125 "/><path style=" stroke:none;fill-rule:nonzero;fill:#c2b48a;fill-opacity:1;" d="M 874.707031 269.285156 C 871.671875 269.285156 869.050781 266.941406 868.867188 263.8125 C 868.636719 260.59375 871.074219 257.785156 874.339844 257.554688 C 883.496094 256.910156 890.625 249.183594 890.625 239.984375 C 890.625 230.230469 882.710938 222.320312 872.960938 222.320312 C 866.519531 222.320312 860.402344 226 857.457031 231.65625 C 855.9375 234.554688 852.351562 235.613281 849.5 234.140625 C 846.648438 232.621094 845.496094 229.082031 847.015625 226.183594 C 852.074219 216.523438 862.011719 210.542969 872.960938 210.542969 C 889.199219 210.542969 902.402344 223.746094 902.402344 239.984375 C 902.402344 255.394531 890.394531 268.273438 875.121094 269.285156 C 874.984375 269.285156 874.847656 269.285156 874.707031 269.285156 "/><path style=" stroke:none;fill-rule:nonzero;fill:#c2b48a;fill-opacity:1;" d="M 562.308594 269.285156 C 562.167969 269.285156 562.03125 269.285156 561.894531 269.285156 C 546.574219 268.273438 534.613281 255.394531 534.613281 239.984375 C 534.613281 223.746094 547.816406 210.542969 564.054688 210.542969 C 574.957031 210.542969 584.894531 216.523438 590.09375 226.136719 C 591.609375 228.988281 590.554688 232.53125 587.699219 234.09375 C 584.894531 235.660156 581.261719 234.601562 579.695312 231.703125 C 576.613281 225.90625 570.589844 222.320312 564.054688 222.320312 C 554.304688 222.320312 546.390625 230.230469 546.390625 239.984375 C 546.390625 249.183594 553.566406 256.910156 562.722656 257.554688 C 565.941406 257.785156 568.378906 260.59375 568.148438 263.8125 C 567.964844 266.941406 565.390625 269.285156 562.308594 269.285156 "/></g></svg>