<svg xmlns="http://www.w3.org/2000/svg" xmlns:xlink="http://www.w3.org/1999/xlink" width="1920" zoomAndPan="magnify" viewBox="0 0 1440 809.999993" height="1080" preserveAspectRatio="xMidYMid meet" version="1.2"><defs><clipPath id="b38f6b1baf"><path d="M 286.46875 166.554688 L 1153.527344 166.554688 L 1153.527344 643.554688 L 286.46875 643.554688 Z M 286.46875 166.554688 "/></clipPath></defs><g id="9783d28771"><g clip-rule="nonzero" clip-path="url(#b38f6b1baf)"><path style=" stroke:none;fill-rule:nonzero;fill:#c2b48a;fill-opacity:1;" d="M 987.257812 390.167969 C 1033.90625 388.550781 1080.554688 391.632812 1126.585938 399.253906 C 1073.085938 434.585938 1023.050781 474.84375 977.175781 519.566406 C 834.152344 659.046875 605.996094 659.046875 462.894531 519.566406 C 417.019531 474.84375 366.984375 434.585938 313.484375 399.253906 C 405.855469 383.855469 500.382812 387.242188 591.445312 409.027344 C 675.964844 429.351562 764.105469 429.351562 848.625 409.027344 C 894.117188 398.175781 940.535156 391.863281 987.257812 390.167969 Z M 601.070312 186.105469 C 641.710938 186.414062 680.429688 202.886719 708.835938 231.90625 C 714.917969 238.140625 724.847656 238.21875 731.082031 232.136719 C 731.160156 232.058594 731.234375 231.984375 731.3125 231.90625 C 790.046875 171.789062 886.417969 170.710938 946.460938 229.519531 C 947.152344 230.136719 947.847656 230.828125 948.539062 231.519531 C 992.644531 287.714844 1045.375 336.515625 1104.800781 376.160156 C 1017.742188 364.765625 929.371094 369.460938 844.003906 389.9375 C 762.488281 409.414062 677.582031 409.414062 596.066406 389.9375 C 510.699219 369.460938 422.40625 364.765625 335.347656 376.160156 C 394.773438 336.515625 447.578125 287.714844 491.609375 231.519531 C 520.472656 202.191406 559.964844 185.796875 601.070312 186.105469 Z M 840.003906 166.476562 C 795.203125 166.476562 752.171875 184.027344 720.074219 215.355469 C 652.105469 149.078125 543.335938 150.386719 477.058594 218.359375 C 476.984375 218.433594 476.90625 218.511719 476.828125 218.589844 C 426.949219 282.324219 365.675781 336.207031 296.167969 377.621094 C 286.773438 383.164062 283.695312 395.171875 289.238281 404.5625 C 290.777344 407.179688 292.855469 409.414062 295.394531 411.03125 C 350.589844 446.746094 402.007812 487.773438 449.039062 533.652344 C 599.761719 680.523438 840.078125 680.523438 990.800781 533.652344 C 1037.832031 487.773438 1089.328125 446.746094 1144.445312 411.03125 C 1153.605469 405.101562 1156.144531 392.941406 1150.214844 383.855469 C 1148.601562 381.316406 1146.367188 379.160156 1143.75 377.621094 C 1074.242188 336.207031 1012.96875 282.324219 963.085938 218.589844 L 963.320312 218.589844 C 930.988281 185.257812 886.496094 166.476562 840.003906 166.476562 "/></g></g></svg>