<svg xmlns="http://www.w3.org/2000/svg" xmlns:xlink="http://www.w3.org/1999/xlink" width="1920" zoomAndPan="magnify" viewBox="0 0 1440 809.999993" height="1080" preserveAspectRatio="xMidYMid meet" version="1.2"><g id="27f38f5166"><path style=" stroke:none;fill-rule:evenodd;fill:#c2b48a;fill-opacity:1;" d="M 450.429688 160.246094 C 429.542969 184.539062 411.625 227.210938 400.148438 278.863281 C 383.449219 354.011719 379.910156 448.371094 397.949219 529.980469 C 418.835938 624.480469 468.84375 701.496094 557.566406 717.523438 C 620.929688 728.96875 670.613281 722.339844 711.371094 702.4375 C 752.050781 682.574219 783.996094 649.304688 811.441406 606.226562 C 863.582031 524.394531 899.605469 406.210938 954.675781 282.222656 C 988.601562 205.835938 1048.667969 188.574219 1048.667969 188.574219 C 1053.609375 187.214844 1057.449219 183.324219 1058.738281 178.359375 C 1060.03125 173.402344 1058.570312 168.132812 1054.917969 164.539062 C 1054.917969 164.539062 1003.515625 113.53125 911.664062 98.5625 C 831.367188 85.472656 772.675781 110.570312 749.445312 123.144531 C 733.960938 108.242188 697.246094 81.933594 630.761719 81.46875 C 565.527344 81.015625 495.152344 108.238281 450.429688 160.246094 Z M 472.164062 178.9375 C 511.414062 133.292969 573.3125 109.734375 630.5625 110.132812 C 705.878906 110.65625 735.007812 149.75 735.007812 149.75 C 739.566406 156.183594 748.464844 157.722656 754.921875 153.199219 C 754.921875 153.199219 814.835938 111.824219 907.054688 126.851562 C 959.316406 135.371094 996.972656 156.75 1017.339844 171.066406 C 992.632812 184.335938 954.035156 213.039062 928.476562 270.585938 C 874.070312 393.085938 838.78125 509.980469 787.269531 590.824219 C 762.894531 629.078125 734.921875 659.039062 698.792969 676.679688 C 662.738281 694.285156 618.714844 699.4375 562.660156 689.3125 C 485.316406 675.34375 444.148438 606.175781 425.9375 523.792969 C 408.792969 446.214844 412.257812 356.519531 428.132812 285.082031 C 438.367188 239.007812 453.53125 200.601562 472.164062 178.9375 Z M 472.164062 178.9375 "/><path style=" stroke:none;fill-rule:evenodd;fill:#c2b48a;fill-opacity:1;" d="M 731.488281 139.929688 L 731.792969 140.117188 C 732.550781 140.613281 731.191406 141.917969 730.050781 142.960938 L 729.886719 143.472656 C 729.828125 143.691406 729.765625 143.914062 729.707031 144.136719 L 729.632812 144.472656 L 729.457031 144.160156 L 729.226562 143.730469 C 729.453125 143.503906 729.746094 143.246094 730.050781 142.960938 C 730.40625 141.910156 730.886719 140.886719 731.488281 139.929688 C 726.640625 136.851562 726.917969 139.425781 729.226562 143.730469 L 728.871094 144.097656 C 707.929688 170.035156 687.96875 198.570312 672.222656 228.953125 C 656.152344 259.972656 644.378906 292.558594 638.414062 325.027344 C 637.695312 328.039062 639.558594 331.070312 642.570312 331.792969 C 645.582031 332.511719 648.617188 330.648438 649.335938 327.636719 C 658.273438 297.402344 673.316406 268.011719 691.128906 239.796875 C 708.550781 212.199219 728.722656 185.917969 750.242188 162.523438 C 751.929688 160.667969 755.746094 155.789062 756.558594 154.378906 C 760.480469 147.570312 757.5 142.15625 756.59375 140.398438 C 754.410156 136.175781 750.65625 133.542969 744.976562 133.007812 C 743.703125 132.890625 739.679688 132.464844 734.515625 136.488281 C 733.296875 137.496094 732.28125 138.660156 731.488281 139.929688 Z M 746.210938 161.648438 C 747.976562 161.460938 750.269531 160.757812 752.734375 158.621094 C 750.78125 160.222656 748.53125 161.226562 746.210938 161.648438 Z M 746.210938 161.648438 "/><path style=" stroke:none;fill-rule:evenodd;fill:#c2b48a;fill-opacity:1;" d="M 624.296875 353.160156 C 616.089844 366.625 607.367188 385.601562 600.25 407.507812 C 596.34375 419.523438 592.765625 432.359375 590.339844 445.570312 C 587.964844 458.515625 586.613281 471.769531 586.148438 484.734375 C 585.375 506.082031 587.203125 526.398438 591 543.832031 C 591.339844 546.460938 593.75 548.320312 596.378906 547.980469 C 599.007812 547.640625 600.863281 545.230469 600.527344 542.601562 C 599.808594 525.71875 602.335938 506.632812 605.59375 486.664062 C 607.582031 474.472656 610.089844 462.101562 612.527344 449.804688 C 615.019531 437.238281 617.375 424.796875 620.125 413.058594 C 625.066406 391.988281 630.371094 373.152344 636.558594 359.691406 C 638.359375 356.304688 637.074219 352.097656 633.691406 350.296875 C 630.308594 348.496094 626.101562 349.78125 624.296875 353.160156 Z M 624.296875 353.160156 "/></g></svg>