<svg xmlns="http://www.w3.org/2000/svg" xmlns:xlink="http://www.w3.org/1999/xlink" width="1920" zoomAndPan="magnify" viewBox="0 0 1440 809.999993" height="1080" preserveAspectRatio="xMidYMid meet" version="1.2"><g id="59e7f82243"><path style=" stroke:none;fill-rule:nonzero;fill:#c2b48a;fill-opacity:1;" d="M 731.882812 729 C 731.804688 729 731.734375 729 731.671875 729 C 727.742188 728.878906 724.65625 725.601562 724.761719 721.679688 C 725.949219 681.519531 694.53125 667.828125 654.757812 650.484375 C 649.957031 648.394531 645.089844 646.269531 640.203125 644.0625 C 593.492188 622.964844 563.589844 598.3125 569.507812 546.550781 C 574.75 500.640625 618.742188 453.46875 642.371094 428.125 C 646.578125 423.613281 650.082031 419.867188 652.5 417.015625 C 688.257812 374.988281 797.074219 247.097656 812.332031 196.238281 C 828.039062 143.878906 812.496094 91.421875 812.339844 90.894531 C 811.199219 87.136719 813.320312 83.164062 817.078125 82.023438 C 820.847656 80.84375 824.800781 82.992188 825.945312 86.746094 C 826.652344 89.042969 842.941406 143.730469 825.960938 200.320312 C 814.957031 236.96875 763.289062 308.761719 663.335938 426.238281 C 660.816406 429.199219 657.160156 433.125 652.777344 437.828125 C 630.257812 461.976562 588.347656 506.914062 583.632812 548.164062 C 578.660156 591.710938 602.753906 611.550781 646.050781 631.101562 C 650.886719 633.285156 655.695312 635.386719 660.441406 637.453125 C 701.582031 655.386719 740.441406 672.332031 738.980469 722.101562 C 738.867188 725.949219 735.710938 729 731.882812 729 Z M 731.882812 729 "/><path style=" stroke:none;fill-rule:nonzero;fill:#c2b48a;fill-opacity:1;" d="M 767.742188 680.929688 C 764.054688 680.929688 760.949219 678.097656 760.65625 674.363281 C 760.355469 670.445312 763.289062 667.03125 767.199219 666.726562 C 767.855469 666.675781 832.769531 661.175781 849.226562 622.246094 C 860.816406 594.863281 846.480469 556.636719 806.648438 508.625 C 804.136719 505.601562 804.558594 501.113281 807.582031 498.609375 C 810.605469 496.089844 815.097656 496.515625 817.597656 499.539062 C 861.121094 551.992188 876.164062 595.152344 862.316406 627.839844 C 842.441406 674.71875 771.3125 680.679688 768.289062 680.910156 C 768.101562 680.921875 767.917969 680.929688 767.742188 680.929688 Z M 767.742188 680.929688 "/><path style=" stroke:none;fill-rule:nonzero;fill:#c2b48a;fill-opacity:1;" d="M 756.644531 655.414062 C 753.128906 655.414062 750.078125 652.820312 749.601562 649.25 C 749.269531 646.738281 750.285156 644.363281 752.085938 642.855469 C 750.457031 641.609375 747.988281 639.953125 744.273438 637.851562 C 736.554688 633.492188 728.476562 629.6875 720.625 626.523438 C 720.851562 627.261719 720.972656 628.414062 720.949219 629.226562 C 720.851562 633.085938 717.6875 636.53125 713.84375 636.53125 C 713.78125 636.53125 713.714844 636.53125 713.667969 636.53125 C 691.386719 636.53125 663.734375 632.667969 658.492188 621.855469 C 656.65625 618.066406 657.203125 613.5625 660 609.84375 C 675.378906 589.34375 732.488281 614.949219 751.28125 625.570312 C 760.933594 631.023438 770.578125 637.703125 768.921875 646.28125 C 767.804688 652.050781 762.121094 654.773438 757.597656 655.378906 C 757.277344 655.421875 756.957031 655.414062 756.644531 655.414062 Z M 674.464844 616.484375 C 680.511719 618.542969 692.648438 620.390625 705.6875 621.195312 C 691.828125 616.875 680.136719 615.113281 674.464844 616.484375 Z M 674.464844 616.484375 "/></g></svg>