<svg xmlns="http://www.w3.org/2000/svg" xmlns:xlink="http://www.w3.org/1999/xlink" width="1920" zoomAndPan="magnify" viewBox="0 0 1440 809.999993" height="1080" preserveAspectRatio="xMidYMid meet" version="1.2"><defs><clipPath id="89a9130e10"><path d="M 906 81 L 1025.402344 81 L 1025.402344 728.402344 L 906 728.402344 Z M 906 81 "/></clipPath><clipPath id="69b3b2b08b"><path d="M 414.898438 81 L 534 81 L 534 728.402344 L 414.898438 728.402344 Z M 414.898438 81 "/></clipPath></defs><g id="f3d743f85d"><g clip-rule="nonzero" clip-path="url(#89a9130e10)"><path style=" stroke:none;fill-rule:nonzero;fill:#c2b48a;fill-opacity:1;" d="M 940.535156 404.648438 C 893.730469 303.96875 895.835938 187.265625 946.335938 88.273438 C 949.707031 81.632812 957.824219 78.996094 964.46875 82.371094 C 971.109375 85.742188 973.746094 93.863281 970.371094 100.503906 C 923.667969 192.117188 921.664062 300.070312 965.101562 393.261719 C 1011.90625 494.152344 1032.042969 605.269531 1023.503906 716.171875 C 1022.871094 723.554688 1016.335938 729.035156 1008.957031 728.402344 C 1001.578125 727.769531 996.09375 721.339844 996.621094 714.066406 C 1004.738281 607.796875 985.445312 501.320312 940.535156 404.648438 "/></g><g clip-rule="nonzero" clip-path="url(#69b3b2b08b)"><path style=" stroke:none;fill-rule:nonzero;fill:#c2b48a;fill-opacity:1;" d="M 499.761719 404.648438 C 454.851562 501.320312 435.558594 607.796875 443.679688 714.066406 C 444.203125 721.445312 438.511719 727.875 431.132812 728.402344 C 423.753906 728.824219 417.425781 723.449219 416.796875 716.171875 C 408.253906 605.269531 428.390625 494.152344 475.304688 393.261719 C 518.632812 300.070312 516.628906 192.117188 469.929688 100.503906 C 466.554688 93.863281 469.191406 85.742188 475.832031 82.371094 C 482.472656 78.996094 490.589844 81.632812 493.964844 88.273438 C 544.460938 187.265625 546.570312 303.96875 499.761719 404.648438 "/></g><path style=" stroke:none;fill-rule:nonzero;fill:#c2b48a;fill-opacity:1;" d="M 733.589844 431.742188 C 733.589844 424.257812 727.582031 418.25 720.097656 418.25 C 712.71875 418.25 706.601562 424.257812 706.601562 431.742188 L 706.601562 458.730469 C 706.601562 466.109375 712.71875 472.226562 720.097656 472.226562 C 727.582031 472.226562 733.589844 466.109375 733.589844 458.730469 L 733.589844 431.742188 "/></g></svg>