<svg xmlns="http://www.w3.org/2000/svg" xmlns:xlink="http://www.w3.org/1999/xlink" width="1920" zoomAndPan="magnify" viewBox="0 0 1440 809.999993" height="1080" preserveAspectRatio="xMidYMid meet" version="1.2"><g id="ebd61a9e46"><path style=" stroke:none;fill-rule:nonzero;fill:#c2b48a;fill-opacity:1;" d="M 894.023438 195.96875 C 862.808594 138.753906 803.148438 102.546875 730.34375 96.59375 C 582.121094 84.398438 516.257812 220.496094 515.621094 221.867188 C 509.484375 235.335938 529.609375 244.644531 535.964844 231.441406 C 536.546875 230.199219 595.460938 107.925781 728.523438 119.015625 C 882.046875 132.222656 935.894531 277.628906 859.5 412.554688 C 830.394531 456.804688 761.335938 531.742188 734.738281 628.734375 C 723.285156 673.144531 666.628906 707.507812 613.476562 702.4375 C 562.8125 697.53125 531.566406 657.785156 527.757812 593.414062 C 526.5625 578.675781 504.648438 580.039062 505.316406 594.730469 C 509.859375 675.5 555.78125 725.601562 624.296875 725.4375 C 684.453125 725.4375 743.222656 685.925781 756.519531 634.355469 C 783.136719 538.851562 849.488281 469.863281 879.332031 423.148438 C 923.546875 340.3125 928.761719 259.636719 894.023438 195.96875 Z M 894.023438 195.96875 "/><path style=" stroke:none;fill-rule:nonzero;fill:#c2b48a;fill-opacity:1;" d="M 768.191406 439.125 C 773.085938 442.953125 780.148438 442.121094 783.980469 437.214844 C 786.765625 433.644531 852.390625 348.996094 842.246094 271.824219 C 833.78125 190.472656 727.289062 150.582031 674.890625 171.496094 C 623.464844 186.996094 586.425781 232.285156 573.699219 267.902344 C 551.480469 329.785156 599.644531 392.582031 630.601562 407.21875 C 631.242188 407.523438 632.125 407.941406 632.371094 410.851562 C 634.035156 430.242188 603.882812 475.3125 582.945312 490.066406 C 554.796875 511.359375 576.433594 561.183594 609.710938 568.710938 C 628.28125 571.664062 642.582031 568.148438 662.625 543.492188 C 683.386719 515.921875 689.558594 503.660156 693.246094 496.324219 C 696.65625 489.539062 696.859375 489.132812 712.011719 478.714844 C 735.550781 462.519531 744.816406 389.191406 722.417969 333.492188 C 710.007812 302.621094 678.453125 254.300781 602.71875 258.515625 C 618.007812 231.410156 646.722656 203.464844 681.382812 193.015625 C 732.375 174.953125 813.496094 213.847656 819.945312 274.699219 C 828.894531 342.460938 766.90625 422.535156 766.28125 423.335938 C 762.460938 428.222656 763.316406 435.292969 768.191406 439.125 Z M 701.558594 341.878906 C 722.023438 392.769531 710.277344 452.605469 699.261719 460.179688 C 680.714844 472.949219 678.5 475.585938 673.15625 486.222656 C 669.8125 492.878906 664.207031 504.019531 644.664062 529.964844 C 626.875 555.894531 601.03125 551.367188 592.90625 521.554688 C 592.335938 518.65625 591.484375 511.5625 595.90625 508.445312 C 622.300781 489.738281 682.597656 410.992188 640.246094 386.90625 C 619.417969 377.015625 580.289062 330.40625 592.871094 281.976562 C 659.25 273.734375 688.597656 309.667969 701.558594 341.878906 Z M 701.558594 341.878906 "/></g></svg>