<svg xmlns="http://www.w3.org/2000/svg" xmlns:xlink="http://www.w3.org/1999/xlink" width="1920" zoomAndPan="magnify" viewBox="0 0 1440 809.999993" height="1080" preserveAspectRatio="xMidYMid meet" version="1.2"><defs><clipPath id="dc4d7f9915"><path d="M 394.726562 81 L 1044.976562 81 L 1044.976562 731.25 L 394.726562 731.25 Z M 394.726562 81 "/></clipPath></defs><g id="59129d4ece"><g clip-rule="nonzero" clip-path="url(#dc4d7f9915)"><path style=" stroke:none;fill-rule:nonzero;fill:#c2b48a;fill-opacity:1;" d="M 989.730469 544.640625 C 979.191406 534.566406 966.703125 526.648438 952.816406 521.484375 C 970.554688 485.796875 979.953125 446.214844 979.953125 406.125 C 979.953125 262.699219 863.28125 146.023438 719.851562 146.023438 C 576.425781 146.023438 459.753906 262.699219 459.753906 406.125 C 459.753906 446.128906 469.152344 485.710938 486.890625 521.484375 C 473.003906 526.691406 460.472656 534.609375 449.929688 544.683594 C 428.042969 502.011719 416.402344 454.46875 416.402344 406.125 C 416.402344 238.777344 552.507812 102.675781 719.851562 102.675781 C 887.199219 102.675781 1023.300781 238.777344 1023.300781 406.125 C 1023.300781 454.597656 1011.660156 502.136719 989.730469 544.640625 Z M 914.925781 709.574219 C 867.132812 709.574219 828.226562 670.671875 828.226562 622.875 C 828.226562 575.078125 867.132812 536.175781 914.925781 536.175781 C 962.722656 536.175781 1001.628906 575.078125 1001.628906 622.875 C 1001.628906 670.671875 962.722656 709.574219 914.925781 709.574219 Z M 611.476562 622.875 C 611.476562 670.671875 572.574219 709.574219 524.777344 709.574219 C 476.984375 709.574219 438.078125 670.671875 438.078125 622.875 C 438.078125 575.078125 476.984375 536.175781 524.777344 536.175781 C 572.574219 536.175781 611.476562 575.078125 611.476562 622.875 Z M 719.851562 81 C 540.566406 81 394.726562 226.839844 394.726562 406.125 C 394.726562 460.863281 408.699219 514.710938 434.902344 562.421875 C 423.21875 579.695312 416.402344 600.523438 416.402344 622.875 C 416.402344 682.609375 465.042969 731.25 524.777344 731.25 C 584.554688 731.25 633.152344 682.609375 633.152344 622.875 C 633.152344 563.097656 584.554688 514.5 524.777344 514.5 C 519.191406 514.5 513.726562 515.050781 508.394531 515.898438 C 490.785156 482.03125 481.425781 444.308594 481.425781 406.125 C 481.425781 274.636719 588.363281 167.699219 719.851562 167.699219 C 851.34375 167.699219 958.277344 274.636719 958.277344 406.125 C 958.277344 444.394531 948.921875 482.15625 931.3125 515.898438 C 925.976562 515.050781 920.515625 514.5 914.925781 514.5 C 855.152344 514.5 806.550781 563.097656 806.550781 622.875 C 806.550781 682.609375 855.152344 731.25 914.925781 731.25 C 974.703125 731.25 1023.300781 682.609375 1023.300781 622.875 C 1023.300781 600.480469 1016.445312 579.652344 1004.761719 562.335938 C 1031.007812 514.839844 1044.976562 461.03125 1044.976562 406.125 C 1044.976562 226.839844 899.136719 81 719.851562 81 "/></g><path style=" stroke:none;fill-rule:nonzero;fill:#c2b48a;fill-opacity:1;" d="M 470.589844 633.710938 C 476.558594 633.710938 481.425781 628.84375 481.425781 622.875 C 481.425781 598.957031 500.859375 579.523438 524.777344 579.523438 C 530.746094 579.523438 535.613281 574.65625 535.613281 568.6875 C 535.613281 562.71875 530.746094 557.851562 524.777344 557.851562 C 488.921875 557.851562 459.753906 587.019531 459.753906 622.875 C 459.753906 628.84375 464.621094 633.710938 470.589844 633.710938 "/><path style=" stroke:none;fill-rule:nonzero;fill:#c2b48a;fill-opacity:1;" d="M 914.925781 557.851562 C 879.070312 557.851562 849.902344 587.019531 849.902344 622.875 C 849.902344 628.84375 854.769531 633.710938 860.738281 633.710938 C 866.710938 633.710938 871.578125 628.84375 871.578125 622.875 C 871.578125 598.957031 891.007812 579.523438 914.925781 579.523438 C 920.898438 579.523438 925.765625 574.65625 925.765625 568.6875 C 925.765625 562.71875 920.898438 557.851562 914.925781 557.851562 "/></g></svg>