<svg xmlns="http://www.w3.org/2000/svg" xmlns:xlink="http://www.w3.org/1999/xlink" width="1920" zoomAndPan="magnify" viewBox="0 0 1440 809.999993" height="1080" preserveAspectRatio="xMidYMid meet" version="1.2"><defs><clipPath id="4bf097a1aa"><path d="M 324 89 L 1121.691406 89 L 1121.691406 727 L 324 727 Z M 324 89 "/></clipPath></defs><g id="c4253f8c8b"><g clip-rule="nonzero" clip-path="url(#4bf097a1aa)"><path style=" stroke:none;fill-rule:nonzero;fill:#c2b48a;fill-opacity:1;" d="M 939.269531 338.761719 C 938.902344 338.679688 938.53125 338.636719 938.15625 338.628906 C 937.78125 338.621094 937.40625 338.652344 937.039062 338.71875 C 936.667969 338.78125 936.308594 338.882812 935.957031 339.019531 C 935.609375 339.160156 935.273438 339.328125 934.957031 339.53125 C 934.640625 339.734375 934.347656 339.964844 934.078125 340.222656 C 933.804688 340.484375 933.5625 340.769531 933.347656 341.078125 C 933.132812 341.386719 932.949219 341.710938 932.800781 342.054688 C 932.648438 342.398438 932.53125 342.753906 932.449219 343.121094 C 932.371094 343.488281 932.324219 343.859375 932.316406 344.234375 C 932.308594 344.609375 932.339844 344.984375 932.40625 345.355469 C 932.46875 345.722656 932.570312 346.082031 932.707031 346.433594 C 932.84375 346.785156 933.011719 347.117188 933.214844 347.433594 C 933.417969 347.75 933.648438 348.046875 933.90625 348.316406 C 934.167969 348.585938 934.449219 348.832031 934.757812 349.046875 C 935.066406 349.261719 935.390625 349.445312 935.734375 349.597656 C 936.078125 349.75 936.433594 349.863281 936.800781 349.945312 C 988.613281 361.371094 1032.25 378.699219 1062.996094 400.050781 C 1093.605469 421.3125 1109.789062 445.550781 1109.789062 470.148438 C 1109.789062 496.21875 1092.015625 521.351562 1058.929688 543.058594 C 1059.84375 538.980469 1060.308594 534.855469 1060.320312 530.675781 C 1060.320312 502.480469 1039.816406 476.257812 1001.027344 454.84375 C 966.859375 435.980469 919.75 422.070312 867.492188 415.316406 C 884.09375 394.230469 898.691406 371.839844 911.277344 348.136719 C 943.207031 286.964844 946.949219 236.105469 921.808594 204.929688 L 852.78125 119.324219 C 830.503906 91.695312 787.195312 82.839844 730.828125 94.394531 C 677.691406 105.28125 615.429688 133.652344 555.066406 174.40625 C 554.320312 173.894531 553.542969 173.441406 552.726562 173.054688 C 551.910156 172.667969 551.066406 172.347656 550.199219 172.09375 C 549.328125 171.839844 548.445312 171.660156 547.550781 171.546875 C 546.652344 171.4375 545.75 171.398438 544.847656 171.433594 C 543.945312 171.464844 543.046875 171.570312 542.164062 171.75 C 541.277344 171.925781 540.410156 172.175781 539.5625 172.492188 C 538.714844 172.808594 537.898438 173.191406 537.113281 173.636719 C 536.328125 174.085938 535.582031 174.59375 534.878906 175.160156 L 523.238281 184.546875 C 522.808594 184.894531 522.394531 185.261719 522 185.648438 C 521.605469 186.039062 521.230469 186.445312 520.878906 186.867188 C 520.523438 187.292969 520.191406 187.734375 519.878906 188.1875 C 519.566406 188.644531 519.28125 189.117188 519.015625 189.601562 C 518.75 190.089844 518.507812 190.585938 518.292969 191.09375 C 518.078125 191.601562 517.886719 192.121094 517.722656 192.648438 C 517.558594 193.175781 517.417969 193.710938 517.304688 194.253906 C 517.191406 194.792969 517.105469 195.339844 517.046875 195.886719 C 516.988281 196.4375 516.957031 196.988281 516.953125 197.542969 C 516.945312 198.09375 516.96875 198.648438 517.019531 199.199219 C 517.066406 199.75 517.144531 200.296875 517.246094 200.839844 C 517.351562 201.382812 517.480469 201.917969 517.636719 202.449219 C 517.792969 202.980469 517.972656 203.5 518.179688 204.011719 C 518.386719 204.527344 518.621094 205.027344 518.875 205.515625 C 519.132812 206.007812 519.414062 206.484375 519.714844 206.945312 C 520.019531 207.40625 520.34375 207.855469 520.691406 208.285156 L 576.347656 277.304688 C 577.746094 279.054688 579.429688 280.464844 581.398438 281.539062 C 583.363281 282.609375 585.460938 283.261719 587.6875 283.496094 C 588.296875 283.5625 588.90625 283.59375 589.519531 283.59375 C 591.441406 283.59375 593.3125 283.273438 595.125 282.632812 C 596.9375 281.992188 598.589844 281.0625 600.082031 279.851562 L 611.726562 270.464844 C 612.398438 269.921875 613.023438 269.335938 613.605469 268.695312 C 614.1875 268.058594 614.71875 267.382812 615.195312 266.664062 C 615.671875 265.945312 616.089844 265.195312 616.453125 264.410156 C 616.816406 263.628906 617.113281 262.820312 617.351562 261.992188 C 617.589844 261.164062 617.765625 260.320312 617.875 259.464844 C 617.980469 258.609375 618.023438 257.75 618 256.886719 C 617.976562 256.027344 617.886719 255.171875 617.734375 254.320312 C 617.578125 253.472656 617.359375 252.640625 617.078125 251.824219 C 705.878906 194.699219 792.1875 175.566406 828.09375 205.429688 C 828.382812 205.671875 828.691406 205.882812 829.019531 206.0625 C 829.351562 206.242188 829.695312 206.390625 830.054688 206.5 C 830.414062 206.613281 830.78125 206.691406 831.15625 206.730469 C 831.53125 206.769531 831.90625 206.773438 832.28125 206.738281 C 832.65625 206.703125 833.023438 206.632812 833.382812 206.527344 C 833.746094 206.421875 834.09375 206.28125 834.425781 206.105469 C 834.757812 205.929688 835.070312 205.722656 835.363281 205.488281 C 835.65625 205.25 835.921875 204.988281 836.164062 204.699219 C 836.40625 204.40625 836.613281 204.097656 836.792969 203.765625 C 836.972656 203.4375 837.121094 203.089844 837.230469 202.730469 C 837.34375 202.371094 837.417969 202.003906 837.457031 201.628906 C 837.496094 201.257812 837.5 200.882812 837.464844 200.507812 C 837.429688 200.132812 837.359375 199.765625 837.25 199.402344 C 837.144531 199.042969 837.003906 198.695312 836.828125 198.363281 C 836.652344 198.03125 836.445312 197.71875 836.207031 197.425781 C 835.96875 197.132812 835.707031 196.867188 835.417969 196.625 C 795.050781 163.050781 705.148438 181.472656 610.707031 242.308594 L 562.855469 182.964844 C 621.5625 143.53125 681.828125 116.128906 733.128906 105.613281 C 785.085938 94.964844 824.410156 102.386719 843.863281 126.515625 L 843.910156 126.570312 C 865.960938 153.988281 861.769531 200.386719 832.097656 257.234375 C 818.386719 283.5 800.003906 310.449219 777.867188 337.042969 L 777.867188 330.957031 C 777.867188 330.40625 777.839844 329.855469 777.785156 329.304688 C 777.730469 328.753906 777.648438 328.210938 777.542969 327.667969 C 777.433594 327.125 777.300781 326.589844 777.140625 326.0625 C 776.980469 325.53125 776.792969 325.011719 776.582031 324.503906 C 776.371094 323.992188 776.132812 323.492188 775.871094 323.003906 C 775.613281 322.519531 775.328125 322.042969 775.023438 321.585938 C 774.714844 321.125 774.386719 320.679688 774.035156 320.253906 C 773.683594 319.828125 773.316406 319.417969 772.925781 319.027344 C 772.535156 318.636719 772.125 318.265625 771.699219 317.914062 C 771.269531 317.5625 770.828125 317.234375 770.367188 316.925781 C 769.910156 316.621094 769.4375 316.335938 768.949219 316.074219 C 768.460938 315.8125 767.960938 315.578125 767.453125 315.367188 C 766.941406 315.152344 766.421875 314.964844 765.894531 314.804688 C 765.363281 314.644531 764.828125 314.511719 764.289062 314.402344 C 763.746094 314.292969 763.199219 314.210938 762.648438 314.15625 C 762.101562 314.101562 761.546875 314.074219 760.996094 314.074219 L 746.039062 314.074219 C 745.136719 314.074219 744.238281 314.148438 743.347656 314.292969 C 742.457031 314.4375 741.582031 314.652344 740.722656 314.9375 C 739.867188 315.222656 739.035156 315.574219 738.234375 315.996094 C 737.433594 316.414062 736.671875 316.890625 735.949219 317.433594 C 735.222656 317.972656 734.546875 318.570312 733.917969 319.21875 C 733.289062 319.867188 732.71875 320.5625 732.199219 321.300781 C 731.683594 322.042969 731.226562 322.820312 730.835938 323.632812 C 730.441406 324.449219 730.117188 325.289062 729.859375 326.15625 C 657.289062 332.316406 591.003906 349.316406 542.804688 374.191406 C 491.679688 400.582031 463.523438 434.65625 463.523438 470.148438 L 463.523438 545.238281 C 459.878906 546.03125 456.296875 546.738281 452.777344 547.359375 C 449.347656 545.828125 446.136719 543.921875 443.148438 541.640625 C 440.160156 539.359375 437.476562 536.765625 435.089844 533.863281 C 404.140625 495.476562 439.914062 410.195312 520.203125 329.90625 C 520.941406 330.355469 521.707031 330.75 522.503906 331.082031 C 523.300781 331.414062 524.121094 331.683594 524.957031 331.890625 C 525.796875 332.097656 526.644531 332.242188 527.507812 332.316406 C 528.367188 332.394531 529.226562 332.402344 530.089844 332.347656 C 530.953125 332.289062 531.804688 332.167969 532.648438 331.980469 C 533.492188 331.792969 534.3125 331.542969 535.117188 331.226562 C 535.921875 330.914062 536.699219 330.539062 537.445312 330.105469 C 538.191406 329.671875 538.902344 329.183594 539.574219 328.640625 L 551.214844 319.253906 L 551.21875 319.253906 C 551.648438 318.90625 552.0625 318.539062 552.453125 318.152344 C 552.847656 317.765625 553.222656 317.359375 553.578125 316.933594 C 553.933594 316.507812 554.265625 316.066406 554.574219 315.609375 C 554.886719 315.152344 555.175781 314.683594 555.441406 314.199219 C 555.703125 313.710938 555.945312 313.214844 556.160156 312.707031 C 556.375 312.199219 556.566406 311.679688 556.730469 311.152344 C 556.898438 310.625 557.035156 310.089844 557.148438 309.546875 C 557.261719 309.007812 557.347656 308.460938 557.40625 307.910156 C 557.464844 307.363281 557.496094 306.8125 557.5 306.257812 C 557.503906 305.703125 557.484375 305.152344 557.433594 304.601562 C 557.382812 304.050781 557.308594 303.503906 557.203125 302.960938 C 557.101562 302.417969 556.972656 301.882812 556.816406 301.351562 C 556.660156 300.820312 556.480469 300.300781 556.273438 299.789062 C 556.066406 299.273438 555.832031 298.773438 555.578125 298.285156 C 555.320312 297.792969 555.039062 297.316406 554.738281 296.855469 C 554.433594 296.394531 554.109375 295.945312 553.761719 295.515625 L 498.109375 226.492188 C 497.761719 226.0625 497.394531 225.652344 497.007812 225.257812 C 496.617188 224.863281 496.210938 224.488281 495.789062 224.132812 C 495.363281 223.777344 494.921875 223.445312 494.464844 223.136719 C 494.007812 222.824219 493.539062 222.535156 493.054688 222.273438 C 492.566406 222.007812 492.070312 221.765625 491.5625 221.550781 C 491.054688 221.335938 490.535156 221.144531 490.007812 220.980469 C 489.480469 220.8125 488.945312 220.675781 488.402344 220.5625 C 487.863281 220.449219 487.316406 220.363281 486.765625 220.304688 C 486.21875 220.246094 485.667969 220.214844 485.113281 220.210938 C 484.5625 220.207031 484.007812 220.226562 483.457031 220.277344 C 482.90625 220.328125 482.359375 220.402344 481.816406 220.507812 C 481.273438 220.609375 480.738281 220.738281 480.207031 220.894531 C 479.675781 221.050781 479.15625 221.230469 478.644531 221.4375 C 478.128906 221.644531 477.628906 221.878906 477.140625 222.132812 C 476.648438 222.390625 476.175781 222.671875 475.710938 222.972656 C 475.25 223.277344 474.804688 223.601562 474.371094 223.949219 L 462.726562 233.335938 C 462.027344 233.902344 461.371094 234.523438 460.769531 235.199219 C 460.167969 235.871094 459.621094 236.585938 459.132812 237.347656 C 458.644531 238.109375 458.222656 238.902344 457.859375 239.730469 C 457.5 240.558594 457.207031 241.410156 456.984375 242.285156 C 456.761719 243.160156 456.609375 244.050781 456.527344 244.949219 C 456.445312 245.847656 456.433594 246.75 456.496094 247.652344 C 456.558594 248.550781 456.695312 249.441406 456.898438 250.324219 C 457.105469 251.203125 457.378906 252.058594 457.722656 252.894531 C 405.09375 303.246094 364.164062 358.085938 342.253906 407.707031 C 319.015625 460.34375 318.484375 504.546875 340.765625 532.175781 L 409.789062 617.78125 C 425.804688 637.644531 452.113281 647.746094 486.3125 647.746094 C 490.53125 647.746094 494.894531 647.5625 499.351562 647.253906 C 555.476562 696.320312 667.347656 726.730469 792.382812 726.730469 C 879.457031 726.730469 961.414062 711.90625 1023.15625 684.988281 C 1086.410156 657.40625 1121.242188 620.164062 1121.242188 580.113281 L 1121.242188 470.148438 C 1121.242188 413.859375 1051.515625 363.511719 939.269531 338.761719 Z M 556.730469 202.257812 C 555.207031 203.488281 553.835938 204.871094 552.625 206.40625 C 551.410156 207.945312 550.382812 209.597656 549.542969 211.367188 C 548.703125 213.136719 548.070312 214.976562 547.644531 216.886719 C 547.21875 218.800781 547.011719 220.734375 547.023438 222.691406 L 529.609375 201.09375 C 529.382812 200.816406 529.191406 200.519531 529.023438 200.203125 C 528.859375 199.886719 528.726562 199.558594 528.628906 199.21875 C 528.527344 198.875 528.460938 198.527344 528.429688 198.171875 C 528.398438 197.816406 528.402344 197.464844 528.4375 197.109375 C 528.476562 196.753906 528.550781 196.40625 528.65625 196.066406 C 528.761719 195.726562 528.898438 195.402344 529.070312 195.089844 C 529.242188 194.777344 529.441406 194.484375 529.667969 194.210938 C 529.898438 193.9375 530.152344 193.6875 530.429688 193.464844 L 542.070312 184.078125 C 543.058594 183.273438 544.191406 182.871094 545.464844 182.875 C 545.660156 182.875 545.859375 182.882812 546.054688 182.90625 C 546.769531 182.980469 547.445312 183.191406 548.074219 183.535156 C 548.707031 183.878906 549.25 184.332031 549.699219 184.894531 L 561.839844 199.953125 C 559.9375 200.277344 558.234375 201.046875 556.730469 202.257812 Z M 995.492188 464.871094 C 1029.910156 483.871094 1048.867188 507.242188 1048.867188 530.675781 C 1048.832031 534.433594 1048.371094 538.132812 1047.476562 541.78125 C 1046.585938 545.429688 1045.289062 548.929688 1043.585938 552.277344 C 1035.875 556.527344 1027.539062 560.609375 1018.578125 564.523438 C 958.25 590.828125 877.917969 605.3125 792.382812 605.3125 C 747.503906 605.425781 703.035156 601.203125 658.980469 592.648438 C 693.820312 573.042969 726.769531 550.65625 757.828125 525.488281 C 795.003906 495.753906 828.757812 462.539062 859.089844 425.847656 C 912.710938 432.058594 961.0625 445.863281 995.492188 464.871094 Z M 549.578125 567.324219 L 513.113281 542.609375 C 548.09375 529.917969 584.730469 511.519531 621.121094 488.46875 L 687.46875 495.574219 C 688.09375 495.640625 688.703125 495.769531 689.296875 495.953125 C 689.894531 496.140625 690.46875 496.382812 691.015625 496.683594 C 691.566406 496.984375 692.078125 497.332031 692.558594 497.734375 C 693.039062 498.132812 693.476562 498.578125 693.867188 499.0625 C 694.261719 499.550781 694.601562 500.070312 694.890625 500.625 C 695.179688 501.179688 695.414062 501.757812 695.589844 502.355469 C 695.765625 502.957031 695.882812 503.566406 695.9375 504.191406 C 695.996094 504.8125 695.988281 505.433594 695.921875 506.054688 L 690.085938 560.515625 C 642.0625 591.664062 593.496094 614.597656 548.949219 626.804688 C 544.191406 628.109375 539.539062 629.261719 534.96875 630.296875 L 554.558594 584.222656 C 554.871094 583.488281 555.117188 582.734375 555.300781 581.957031 C 555.480469 581.179688 555.59375 580.394531 555.640625 579.597656 C 555.6875 578.800781 555.664062 578.007812 555.574219 577.214844 C 555.484375 576.425781 555.324219 575.644531 555.097656 574.878906 C 554.875 574.117188 554.585938 573.375 554.230469 572.660156 C 553.878906 571.945312 553.464844 571.265625 552.996094 570.621094 C 552.527344 569.976562 552.003906 569.378906 551.429688 568.824219 C 550.855469 568.273438 550.238281 567.769531 549.578125 567.324219 Z M 597.277344 644.863281 C 597.980469 644.488281 598.648438 644.054688 599.277344 643.566406 C 599.90625 643.074219 600.488281 642.535156 601.023438 641.941406 C 601.558594 641.351562 602.039062 640.71875 602.464844 640.046875 C 602.890625 639.371094 603.257812 638.664062 603.5625 637.929688 C 603.863281 637.191406 604.105469 636.433594 604.277344 635.65625 C 604.453125 634.878906 604.558594 634.089844 604.59375 633.292969 C 604.632812 632.496094 604.601562 631.703125 604.503906 630.910156 C 604.402344 630.121094 604.238281 629.34375 604.003906 628.582031 L 601.582031 620.636719 C 615.359375 614.914062 629.332031 608.371094 643.390625 601.050781 C 665.105469 605.875 687.019531 609.535156 709.121094 612.03125 L 756.386719 659.28125 C 756.828125 659.722656 757.222656 660.207031 757.570312 660.726562 C 757.917969 661.246094 758.210938 661.792969 758.449219 662.371094 C 758.691406 662.949219 758.871094 663.542969 758.992188 664.15625 C 759.113281 664.769531 759.175781 665.390625 759.175781 666.015625 C 759.175781 666.640625 759.113281 667.257812 758.992188 667.871094 C 758.871094 668.484375 758.691406 669.082031 758.449219 669.660156 C 758.210938 670.234375 757.917969 670.785156 757.570312 671.304688 C 757.222656 671.824219 756.828125 672.304688 756.386719 672.746094 L 717.75 711.386719 C 654.101562 704.679688 596.429688 689.582031 553.164062 668.398438 Z M 857.878906 656.210938 L 817.984375 616.332031 C 856.5 615.152344 894.636719 610.726562 932.398438 603.046875 L 996.726562 626.664062 C 997.238281 626.851562 997.734375 627.082031 998.207031 627.359375 C 998.683594 627.632812 999.128906 627.945312 999.550781 628.296875 C 999.96875 628.648438 1000.355469 629.03125 1000.710938 629.449219 C 1001.066406 629.867188 1001.378906 630.3125 1001.65625 630.785156 C 1001.933594 631.257812 1002.167969 631.75 1002.359375 632.265625 C 1002.554688 632.777344 1002.699219 633.300781 1002.800781 633.839844 C 1002.902344 634.378906 1002.957031 634.921875 1002.964844 635.46875 C 1002.972656 636.019531 1002.933594 636.5625 1002.84375 637.101562 L 995.410156 683.65625 C 945.152344 701.707031 884.039062 712.492188 818.898438 714.800781 L 857.878906 675.816406 C 858.523438 675.175781 859.097656 674.472656 859.601562 673.71875 C 860.109375 672.960938 860.535156 672.160156 860.882812 671.320312 C 861.234375 670.480469 861.496094 669.613281 861.671875 668.71875 C 861.851562 667.828125 861.9375 666.925781 861.9375 666.015625 C 861.9375 665.105469 861.851562 664.203125 861.671875 663.308594 C 861.496094 662.417969 861.230469 661.550781 860.882812 660.710938 C 860.535156 659.867188 860.109375 659.070312 859.601562 658.3125 C 859.097656 657.554688 858.519531 656.855469 857.878906 656.210938 Z M 868.339844 156.871094 L 912.890625 212.117188 C 927.5625 230.316406 930.640625 256.898438 922.375 289.351562 L 897.65625 246.207031 C 897.257812 245.515625 896.804688 244.863281 896.296875 244.25 C 895.789062 243.636719 895.230469 243.070312 894.625 242.554688 C 894.015625 242.035156 893.371094 241.574219 892.683594 241.167969 C 891.996094 240.761719 891.28125 240.417969 890.535156 240.136719 C 889.789062 239.855469 889.023438 239.636719 888.242188 239.488281 C 887.457031 239.335938 886.667969 239.253906 885.871094 239.242188 C 885.074219 239.226562 884.28125 239.28125 883.492188 239.402344 C 882.707031 239.527344 881.933594 239.714844 881.179688 239.972656 L 847.839844 251.273438 C 864.988281 215.160156 871.898438 182.996094 868.339844 156.871094 Z M 740.609375 330.957031 C 740.609375 330.601562 740.644531 330.25 740.714844 329.898438 C 740.785156 329.550781 740.886719 329.210938 741.023438 328.882812 C 741.160156 328.550781 741.328125 328.238281 741.527344 327.941406 C 741.722656 327.644531 741.949219 327.371094 742.203125 327.121094 C 742.453125 326.867188 742.726562 326.644531 743.023438 326.445312 C 743.320312 326.246094 743.632812 326.078125 743.960938 325.941406 C 744.292969 325.804688 744.632812 325.703125 744.980469 325.632812 C 745.332031 325.5625 745.683594 325.527344 746.039062 325.527344 L 760.996094 325.527344 C 761.351562 325.527344 761.703125 325.5625 762.054688 325.632812 C 762.402344 325.703125 762.742188 325.808594 763.070312 325.945312 C 763.398438 326.082031 763.710938 326.25 764.007812 326.449219 C 764.304688 326.644531 764.578125 326.871094 764.828125 327.121094 C 765.078125 327.375 765.304688 327.648438 765.5 327.945312 C 765.699219 328.242188 765.867188 328.554688 766 328.882812 C 766.136719 329.210938 766.238281 329.550781 766.308594 329.902344 C 766.378906 330.25 766.414062 330.601562 766.414062 330.957031 L 766.414062 350.398438 C 758.242188 359.648438 749.640625 368.816406 740.609375 377.902344 Z M 789.195312 341.316406 L 854.09375 319.324219 C 854.609375 319.148438 855.140625 319.019531 855.683594 318.933594 C 856.222656 318.847656 856.765625 318.8125 857.316406 318.820312 C 857.863281 318.832031 858.40625 318.886719 858.941406 318.992188 C 859.480469 319.09375 860.007812 319.242188 860.519531 319.4375 C 861.03125 319.628906 861.523438 319.867188 861.992188 320.144531 C 862.464844 320.425781 862.910156 320.742188 863.324219 321.097656 C 863.742188 321.453125 864.125 321.839844 864.476562 322.261719 C 864.824219 322.683594 865.136719 323.132812 865.410156 323.609375 L 888.84375 364.519531 C 861.046875 410.113281 820.246094 456.871094 770.980469 499.558594 L 776.859375 444.742188 C 776.957031 443.835938 776.964844 442.929688 776.882812 442.023438 C 776.800781 441.117188 776.632812 440.226562 776.375 439.351562 C 776.117188 438.480469 775.777344 437.640625 775.355469 436.832031 C 774.933594 436.027344 774.4375 435.269531 773.867188 434.558594 C 773.296875 433.851562 772.660156 433.207031 771.960938 432.621094 C 771.261719 432.039062 770.511719 431.527344 769.714844 431.09375 C 768.914062 430.65625 768.082031 430.304688 767.210938 430.03125 C 766.34375 429.761719 765.457031 429.574219 764.550781 429.480469 L 708.464844 423.472656 C 737.707031 398.382812 764.617188 370.996094 789.195312 341.316406 Z M 548.058594 384.371094 C 594.589844 360.355469 658.703125 343.859375 729.152344 337.707031 L 729.152344 389.164062 C 714.242188 403.484375 698.34375 417.480469 681.613281 430.96875 C 634.394531 469.042969 584.652344 499.761719 537.070312 520.636719 C 544.519531 488.390625 587.488281 458.03125 652.722656 439.816406 C 653.085938 439.714844 653.433594 439.582031 653.769531 439.410156 C 654.105469 439.242188 654.421875 439.039062 654.714844 438.808594 C 655.011719 438.574219 655.28125 438.316406 655.527344 438.03125 C 655.773438 437.746094 655.988281 437.441406 656.171875 437.113281 C 656.355469 436.785156 656.507812 436.441406 656.625 436.085938 C 656.742188 435.726562 656.824219 435.363281 656.867188 434.988281 C 656.914062 434.617188 656.921875 434.242188 656.894531 433.867188 C 656.863281 433.492188 656.800781 433.121094 656.699219 432.761719 C 656.597656 432.398438 656.460938 432.050781 656.292969 431.714844 C 656.121094 431.378906 655.921875 431.0625 655.6875 430.765625 C 655.457031 430.472656 655.199219 430.199219 654.914062 429.957031 C 654.628906 429.710938 654.320312 429.496094 653.992188 429.3125 C 653.664062 429.125 653.324219 428.976562 652.964844 428.859375 C 652.609375 428.742188 652.242188 428.660156 651.871094 428.613281 C 651.496094 428.570312 651.121094 428.5625 650.746094 428.589844 C 650.371094 428.617188 650.003906 428.683594 649.640625 428.785156 C 574.347656 449.8125 528.0625 485.898438 524.644531 525.882812 C 519.808594 527.84375 514.992188 529.738281 510.21875 531.484375 C 487.171875 512.480469 474.976562 491.328125 474.976562 470.148438 C 474.976562 439.15625 500.933594 408.695312 548.058594 384.371094 Z M 474.976562 508.941406 C 481.222656 519.03125 488.800781 527.992188 497.710938 535.824219 C 491.71875 537.796875 485.789062 539.589844 479.921875 541.199219 C 478.261719 541.652344 476.617188 542.085938 474.976562 542.507812 Z M 469.917969 242.253906 L 481.5625 232.867188 C 481.839844 232.644531 482.136719 232.449219 482.453125 232.285156 C 482.765625 232.117188 483.097656 231.984375 483.4375 231.886719 C 483.78125 231.785156 484.128906 231.71875 484.484375 231.6875 C 484.835938 231.65625 485.191406 231.660156 485.546875 231.695312 C 485.898438 231.734375 486.246094 231.808594 486.585938 231.914062 C 486.925781 232.019531 487.253906 232.15625 487.566406 232.328125 C 487.878906 232.5 488.171875 232.699219 488.445312 232.925781 C 488.71875 233.15625 488.96875 233.40625 489.191406 233.683594 L 501.332031 248.742188 C 499.429688 249.066406 497.726562 249.835938 496.222656 251.046875 C 494.699219 252.277344 493.328125 253.660156 492.117188 255.195312 C 490.902344 256.734375 489.875 258.386719 489.035156 260.15625 C 488.195312 261.925781 487.5625 263.765625 487.136719 265.675781 C 486.710938 267.589844 486.503906 269.523438 486.515625 271.480469 L 469.101562 249.882812 C 468.878906 249.605469 468.683594 249.308594 468.519531 248.992188 C 468.355469 248.679688 468.222656 248.347656 468.121094 248.007812 C 468.019531 247.664062 467.953125 247.316406 467.921875 246.960938 C 467.890625 246.609375 467.894531 246.253906 467.933594 245.898438 C 467.96875 245.546875 468.042969 245.199219 468.148438 244.859375 C 468.253906 244.519531 468.394531 244.191406 468.5625 243.878906 C 468.734375 243.566406 468.933594 243.273438 469.160156 243 C 469.386719 242.726562 469.640625 242.476562 469.917969 242.253906 Z M 349.679688 524.984375 C 330.226562 500.859375 331.3125 460.851562 352.734375 412.335938 C 373.882812 364.429688 413.441406 311.34375 464.425781 262.332031 L 512.261719 321.65625 C 426.296875 407.515625 390.898438 497.300781 426.171875 541.054688 C 428.804688 544.296875 431.757812 547.21875 435.03125 549.816406 C 395.652344 553.691406 366.042969 545.277344 349.679688 524.984375 Z M 418.707031 610.589844 L 374.15625 555.339844 C 388.09375 560.410156 404.609375 562.644531 423.308594 562.019531 L 469.96875 593.652344 C 470.421875 593.960938 470.84375 594.304688 471.238281 594.683594 C 471.632812 595.066406 471.992188 595.476562 472.316406 595.917969 C 472.636719 596.359375 472.921875 596.828125 473.164062 597.316406 C 473.40625 597.808594 473.605469 598.316406 473.757812 598.84375 C 473.914062 599.367188 474.023438 599.902344 474.085938 600.445312 C 474.148438 600.992188 474.164062 601.535156 474.132812 602.082031 C 474.101562 602.628906 474.019531 603.171875 473.894531 603.703125 C 473.773438 604.238281 473.601562 604.753906 473.386719 605.257812 L 461.125 634.089844 C 442.804688 630.5 428.421875 622.636719 418.707031 610.589844 Z M 1109.789062 580.113281 C 1109.789062 603.488281 1095.5 626.113281 1068.695312 646.1875 L 1076.53125 597.089844 C 1076.65625 596.304688 1076.714844 595.511719 1076.703125 594.714844 C 1076.691406 593.917969 1076.613281 593.125 1076.464844 592.34375 C 1076.316406 591.558594 1076.105469 590.792969 1075.824219 590.046875 C 1075.546875 589.300781 1075.203125 588.582031 1074.800781 587.894531 C 1074.398438 587.207031 1073.9375 586.558594 1073.421875 585.949219 C 1072.90625 585.339844 1072.34375 584.78125 1071.730469 584.269531 C 1071.121094 583.757812 1070.46875 583.300781 1069.777344 582.902344 C 1069.085938 582.503906 1068.367188 582.167969 1067.617188 581.894531 L 1034.570312 569.761719 C 1070.59375 552.414062 1096.160156 531.710938 1109.789062 509.140625 Z M 1109.789062 580.113281 "/></g></g></svg>